<svg width="57" height="57" viewBox="0 0 57 57" fill="none" xmlns="http://www.w3.org/2000/svg">
<path d="M46.3953 0H10.6047C4.74786 0 0 4.74786 0 10.6047V46.3953C0 52.2521 4.74786 57 10.6047 57H46.3953C52.2521 57 57 52.2521 57 46.3953V10.6047C57 4.74786 52.2521 0 46.3953 0Z" fill="#DFF6F2"/>
<path d="M42 24.048V34.7344C42.0001 35.8239 41.5872 36.8722 40.846 37.6642C40.1049 38.4561 39.0916 38.9318 38.0142 38.9934L37.775 39H20.225C19.1458 39.0001 18.1075 38.5832 17.3231 37.8349C16.5387 37.0867 16.0676 36.0637 16.0065 34.9759L16 34.7344V24.048L28.5476 30.684C28.6872 30.7578 28.8424 30.7964 29 30.7964C29.1576 30.7964 29.3128 30.7578 29.4524 30.684L42 24.048ZM20.225 18H37.775C38.8223 17.9999 39.8322 18.3924 40.6091 19.1015C41.3859 19.8106 41.8742 20.7858 41.9792 21.8377L29 28.7021L16.0208 21.8377C16.1216 20.8275 16.576 19.8867 17.3023 19.1845C18.0286 18.4822 18.9792 18.0646 19.9832 18.0066L20.225 18H37.775H20.225Z" fill="#212949"/>
</svg>
