<svg width="57" height="57" viewBox="0 0 57 57" fill="none" xmlns="http://www.w3.org/2000/svg">
<path d="M46.3953 0H10.6047C4.74786 0 0 4.74786 0 10.6047V46.3953C0 52.2521 4.74786 57 10.6047 57H46.3953C52.2521 57 57 52.2521 57 46.3953V10.6047C57 4.74786 52.2521 0 46.3953 0Z" fill="#DFF6F2"/>
<path d="M33.3433 34.48L35.5833 32.24C35.885 31.9421 36.2667 31.7381 36.6821 31.6529C37.0975 31.5677 37.5287 31.6049 37.9233 31.76L40.6533 32.85C41.0521 33.0119 41.3941 33.2882 41.6361 33.6441C41.8781 34.0001 42.0094 34.4197 42.0133 34.85V39.85C42.011 40.1428 41.9494 40.4321 41.8324 40.7005C41.7153 40.9688 41.5452 41.2107 41.3321 41.4116C41.1191 41.6125 40.8677 41.7682 40.5929 41.8693C40.3181 41.9704 40.0257 42.0149 39.7333 42C20.6033 40.81 16.7433 24.61 16.0133 18.41C15.9794 18.1056 16.0104 17.7974 16.1042 17.5058C16.1979 17.2141 16.3524 16.9456 16.5574 16.718C16.7624 16.4903 17.0132 16.3086 17.2935 16.1849C17.5737 16.0612 17.877 15.9982 18.1833 16H23.0133C23.4443 16.0013 23.8651 16.1315 24.2215 16.3739C24.5779 16.6162 24.8537 16.9597 25.0133 17.36L26.1033 20.09C26.2636 20.4831 26.3045 20.9147 26.2209 21.3309C26.1373 21.747 25.9329 22.1293 25.6333 22.43L23.3933 24.67C23.3933 24.67 24.6833 33.4 33.3433 34.48Z" fill="#212949"/>
</svg>
