<svg width="57" height="57" viewBox="0 0 57 57" fill="none" xmlns="http://www.w3.org/2000/svg">
<path d="M46.3953 0H10.6047C4.74786 0 0 4.74786 0 10.6047V46.3953C0 52.2521 4.74786 57 10.6047 57H46.3953C52.2521 57 57 52.2521 57 46.3953V10.6047C57 4.74786 52.2521 0 46.3953 0Z" fill="#DFF6F2"/>
<path d="M29 15.5C22.1075 15.5 16.5 21.1075 16.5 28C16.5 34.8925 22.1075 40.5 29 40.5C35.8925 40.5 41.5 34.8925 41.5 28C41.5 21.1075 35.8925 15.5 29 15.5ZM19 28C19 26.8763 19.195 25.7975 19.5388 24.7887L21.5 26.75L24 29.25V31.75L26.5 34.25L27.75 35.5V37.9137C22.8263 37.295 19 33.09 19 28ZM36.9125 34.0912C36.0963 33.4337 34.8587 33 34 33V31.75C34 31.087 33.7366 30.4511 33.2678 29.9822C32.7989 29.5134 32.163 29.25 31.5 29.25H26.5V25.5C27.163 25.5 27.7989 25.2366 28.2678 24.7678C28.7366 24.2989 29 23.663 29 23V21.75H30.25C30.913 21.75 31.5489 21.4866 32.0178 21.0178C32.4866 20.5489 32.75 19.913 32.75 19.25V18.7363C36.41 20.2225 39 23.8125 39 28C38.9998 30.2059 38.2653 32.3489 36.9125 34.0912Z" fill="#212949"/>
</svg>
 