<svg width="53" height="53" viewBox="0 0 53 53" fill="none" xmlns="http://www.w3.org/2000/svg">
<path d="M8.15095 13.8948C11.2492 10.5359 15.9375 8.83325 22.0833 8.83325H24.2917V15.0585L22.5162 15.4141C19.4907 16.0192 17.3862 17.2095 16.2599 18.9562C15.6723 19.8973 15.339 20.9748 15.2927 22.0833H22.0833C22.669 22.0833 23.2307 22.3159 23.6448 22.7301C24.059 23.1442 24.2917 23.7059 24.2917 24.2916V39.7499C24.2917 42.1857 22.3108 44.1666 19.875 44.1666H6.62499C6.0393 44.1666 5.47761 43.9339 5.06346 43.5198C4.64932 43.1056 4.41666 42.5439 4.41666 41.9582V30.9166L4.42328 24.4705C4.40341 24.2253 3.98382 18.4174 8.15095 13.8948ZM44.1667 44.1666H30.9167C30.331 44.1666 29.7693 43.9339 29.3551 43.5198C28.941 43.1056 28.7083 42.5439 28.7083 41.9582V30.9166L28.7149 24.4705C28.6951 24.2253 28.2755 18.4174 32.4426 13.8948C35.5409 10.5359 40.2292 8.83325 46.375 8.83325H48.5833V15.0585L46.8078 15.4141C43.7824 16.0192 41.6779 17.2095 40.5516 18.9562C39.964 19.8973 39.6307 20.9748 39.5844 22.0833H46.375C46.9607 22.0833 47.5224 22.3159 47.9365 22.7301C48.3507 23.1442 48.5833 23.7059 48.5833 24.2916V39.7499C48.5833 42.1857 46.6024 44.1666 44.1667 44.1666Z" fill="#7EB6AD"/>
</svg>
