<svg width="45" height="45" viewBox="0 0 45 45" fill="none" xmlns="http://www.w3.org/2000/svg">
<g clip-path="url(#clip0_3_20)">
<path d="M43.98 21.995C44.46 34.17 34.2799 44.295 22.0669 44.254C19.1291 44.2453 16.2225 43.6518 13.5163 42.5084C10.8102 41.3649 8.35876 39.6942 6.30486 37.5936C4.25096 35.4931 2.63567 33.0048 1.55321 30.2736C0.470749 27.5425 -0.0572241 24.6233 -1.2842e-05 21.686C0.0439872 10.696 9.88495 -0.421012 22.991 0.0169883C34.136 0.384988 44.58 10.622 43.98 21.995ZM32.6219 17.562C32.6039 17.219 32.613 16.922 32.569 16.632C32.5036 16.106 32.405 15.5846 32.274 15.071C31.8293 13.1309 30.8246 11.3642 29.3846 9.99013C27.9446 8.61609 26.1327 7.69526 24.1739 7.342C22.2362 6.86748 20.2002 6.98947 18.333 7.69201C16.4658 8.39454 14.8543 9.64482 13.7099 11.279C12.4537 12.7866 11.6908 14.6438 11.5245 16.5991C11.3581 18.5545 11.7964 20.5138 12.78 22.212C13.2949 23.2038 13.9001 24.1462 14.5879 25.027C16.8879 27.916 18.6289 30.971 18.0359 34.867C17.9879 35.184 17.901 35.728 18.329 35.767C19.202 35.839 19.0599 36.533 19.2829 37.024C19.5093 37.572 19.8927 38.0409 20.3848 38.3716C20.8768 38.7024 21.4557 38.8803 22.0486 38.883C22.6415 38.8856 23.222 38.713 23.7171 38.3866C24.2121 38.0603 24.5997 37.5949 24.831 37.049C24.977 36.73 24.9789 36.14 25.1709 36.081C26.6799 35.62 26.171 34.392 26.108 33.481C25.9456 31.2287 26.6224 28.9961 28.008 27.213C28.917 25.983 29.787 24.724 30.643 23.456C31.8674 21.7266 32.5557 19.675 32.6219 17.557V17.562Z" fill="#DFF6F2"/>
<path d="M32.623 17.557C32.5561 19.6727 31.8686 21.722 30.646 23.45C29.79 24.718 28.92 25.978 28.011 27.207C26.6253 28.99 25.9486 31.2227 26.111 33.475C26.172 34.383 26.683 35.611 25.174 36.075C24.982 36.134 24.979 36.724 24.834 37.043C24.6027 37.5889 24.2152 38.0543 23.7201 38.3806C23.2251 38.707 22.6446 38.8796 22.0517 38.877C21.4588 38.8743 20.8799 38.6964 20.3878 38.3656C19.8957 38.0348 19.5124 37.566 19.286 37.018C19.063 36.527 19.205 35.833 18.332 35.761C17.905 35.726 17.992 35.181 18.04 34.861C18.633 30.961 16.891 27.91 14.592 25.021C13.9042 24.1402 13.2989 23.1978 12.784 22.206C11.8004 20.5078 11.3622 18.5485 11.5285 16.5931C11.6948 14.6378 12.4577 12.7806 13.714 11.273C14.8584 9.63882 16.4698 8.38854 18.337 7.68601C20.2043 6.98347 22.2402 6.86148 24.178 7.336C26.1367 7.68926 27.9487 8.61009 29.3887 9.98413C30.8287 11.3582 31.8334 13.1249 32.278 15.065C32.4091 15.5786 32.5076 16.1 32.573 16.626C32.613 16.916 32.608 17.214 32.623 17.557ZM22.031 18.607C22.679 18.607 23.331 18.607 23.975 18.607C24.7989 18.5781 25.6236 18.5918 26.446 18.648C27.221 18.733 26.792 19.648 27.366 20.108C28.704 21.185 28.287 22.578 26.585 23.048C26.058 23.194 25.753 23.348 25.626 23.873C25.126 25.93 24.615 27.982 24.126 30.039C24.051 30.35 23.833 30.775 24.318 30.928C24.818 31.088 25.057 30.75 25.175 30.296C25.7519 28.5626 26.636 26.9472 27.785 25.527C28.7124 24.3101 29.5656 23.0385 30.34 21.719C31.3387 19.8594 31.6544 17.7086 31.2322 15.6405C30.81 13.5723 29.6766 11.7174 28.029 10.398C26.3646 9.00746 24.2665 8.24238 22.0977 8.23508C19.9289 8.22777 17.8257 8.97872 16.152 10.358C14.5001 11.6698 13.3585 13.5174 12.9242 15.5816C12.49 17.6458 12.7906 19.7969 13.774 21.663C14.5071 22.9392 15.3243 24.1652 16.22 25.333C17.1635 26.6107 17.9934 27.9685 18.7 29.391C18.979 29.981 18.764 31.321 19.893 30.898C20.628 30.622 19.91 29.638 19.77 29.03C19.085 26.053 18.28 23.103 17.538 20.138C17.173 18.68 17.218 18.631 18.676 18.61C19.793 18.594 20.908 18.607 22.031 18.607ZM21.99 19.816C21.169 19.816 20.347 19.81 19.526 19.816C19.172 19.816 18.738 19.846 18.841 20.35C19.0544 21.5004 19.3325 22.6379 19.674 23.757C19.858 24.323 24.25 24.363 24.428 23.797C24.81 22.576 25.567 21.241 25.149 20.084C24.897 19.384 23.432 19.911 22.518 19.812C22.342 19.8039 22.1658 19.8056 21.99 19.817V19.816ZM22.144 25.266C21.909 25.266 21.673 25.266 21.438 25.266C20.071 25.301 20.038 25.332 20.361 26.682C20.65 27.882 21.001 29.062 21.282 30.262C21.382 30.711 21.528 31.03 22.046 31.051C22.582 31.072 22.727 30.733 22.833 30.295C23.081 29.268 23.356 28.249 23.62 27.226C24.128 25.266 24.128 25.266 22.144 25.266ZM22.033 34.696C22.79 34.696 23.547 34.696 24.304 34.696C24.376 34.7054 24.4493 34.6996 24.5189 34.679C24.5886 34.6583 24.6531 34.6233 24.7084 34.5762C24.7637 34.5291 24.8086 34.4709 24.84 34.4055C24.8715 34.34 24.8888 34.2686 24.891 34.196C24.914 33.822 24.648 33.709 24.329 33.708C22.815 33.7033 21.301 33.7033 19.787 33.708C19.478 33.708 19.205 33.795 19.209 34.178C19.204 34.2505 19.2151 34.3233 19.2416 34.391C19.268 34.4588 19.3092 34.5198 19.3621 34.5697C19.415 34.6196 19.4783 34.6572 19.5474 34.6798C19.6166 34.7023 19.6899 34.7092 19.762 34.7C20.519 34.701 21.276 34.696 22.033 34.696ZM22.233 37.66C22.4339 37.6424 22.6314 37.5973 22.82 37.526C23.371 37.256 23.893 36.854 23.769 36.191C23.645 35.528 23 35.885 22.586 35.826C22.1758 35.7762 21.7612 35.7762 21.351 35.826C20.987 35.865 20.451 35.578 20.318 36.163C20.218 36.599 20.544 36.933 20.829 37.232C21.0195 37.4001 21.2439 37.5253 21.487 37.5991C21.7301 37.6729 21.9862 37.6937 22.238 37.66H22.233ZM22.043 32.622C22.843 32.622 23.485 32.622 24.13 32.622C24.351 32.622 24.576 32.622 24.722 32.411C24.5129 32.3252 24.2944 32.2644 24.071 32.23C23.4268 32.1951 22.7812 32.1951 22.137 32.23C21.212 32.1267 20.2761 32.1829 19.37 32.396C20.282 32.89 21.264 32.478 22.048 32.622H22.043ZM26.506 21.89C26.6192 21.8768 26.7241 21.8242 26.8024 21.7413C26.8806 21.6585 26.9273 21.5507 26.934 21.437C26.955 21.206 26.834 20.968 26.546 21.017C26.258 21.066 26.285 21.326 26.269 21.544C26.262 21.722 26.315 21.855 26.508 21.89H26.506Z" fill="#212949"/>
<path d="M22.031 18.608C20.911 18.608 19.792 18.595 18.673 18.608C17.215 18.629 17.173 18.678 17.535 20.136C18.277 23.101 19.082 26.051 19.767 29.028C19.907 29.635 20.624 30.62 19.89 30.896C18.761 31.319 18.976 29.978 18.697 29.389C17.9903 27.9665 17.1605 26.6087 16.217 25.331C15.3212 24.1632 14.5041 22.9372 13.771 21.661C12.7876 19.7949 12.487 17.6438 12.9212 15.5796C13.3554 13.5154 14.4971 11.6678 16.1489 10.356C17.8227 8.97673 19.9259 8.22578 22.0947 8.23309C24.2635 8.24039 26.3616 9.00547 28.026 10.396C29.6736 11.7154 30.807 13.5703 31.2292 15.6385C31.6514 17.7067 31.3357 19.8574 30.337 21.717C29.5626 23.0365 28.7093 24.3081 27.7819 25.525C26.6329 26.9452 25.7488 28.5606 25.172 30.294C25.054 30.748 24.819 31.085 24.315 30.926C23.83 30.772 24.0489 30.348 24.1229 30.037C24.6149 27.98 25.1309 25.928 25.6229 23.871C25.7499 23.345 26.055 23.192 26.582 23.046C28.282 22.576 28.701 21.183 27.363 20.106C26.789 19.644 27.218 18.731 26.443 18.646C25.6205 18.5898 24.7958 18.5761 23.9719 18.605C23.3269 18.605 22.679 18.608 22.031 18.608ZM23.052 13.27C23.1416 12.7573 23.2043 12.2403 23.24 11.721C23.247 11.449 23.14 11.059 22.83 11.026C22.7415 11.0144 22.6516 11.0214 22.566 11.0464C22.4804 11.0715 22.4009 11.1141 22.3327 11.1716C22.2645 11.2291 22.209 11.3002 22.1698 11.3803C22.1306 11.4605 22.1085 11.5479 22.1049 11.637C22.1399 12.93 21.227 13.754 20.666 14.752C20.215 15.3663 19.9584 16.1015 19.929 16.863C19.951 17.222 20.029 17.651 20.418 17.693C20.5043 17.6959 20.5902 17.6811 20.6706 17.6496C20.751 17.6181 20.8241 17.5705 20.8854 17.5097C20.9467 17.449 20.995 17.3763 21.0272 17.2962C21.0595 17.2161 21.075 17.1303 21.073 17.044C21.194 15.492 22.298 14.453 23.067 13.239C23.567 14.025 22.915 14.539 22.592 15.103C22.1831 15.6724 21.9154 16.3308 21.811 17.024C21.7849 17.1698 21.8098 17.32 21.8816 17.4495C21.9534 17.579 22.0676 17.6798 22.205 17.735C22.3503 17.7645 22.5014 17.7401 22.6301 17.6666C22.7589 17.593 22.8566 17.4752 22.905 17.335C23.2819 16.3593 23.7608 15.426 24.3339 14.551C24.4803 14.3306 24.5638 14.0745 24.5754 13.8102C24.587 13.5459 24.5264 13.2834 24.4 13.051C23.911 12.424 23.564 13.526 23.052 13.27Z" fill="#DAF1EE"/>
<path d="M21.989 19.818C22.1649 19.8082 22.3411 19.8082 22.517 19.818C23.431 19.918 24.895 19.393 25.148 20.09C25.566 21.247 24.809 22.5819 24.427 23.8029C24.25 24.3689 19.857 24.329 19.673 23.763C19.3315 22.6439 19.0534 21.5064 18.84 20.356C18.74 19.856 19.17 19.826 19.525 19.822C20.346 19.813 21.168 19.822 21.989 19.822V19.818Z" fill="#F9E34A"/>
<path d="M22.144 25.267C24.128 25.267 24.128 25.267 23.621 27.228C23.357 28.251 23.081 29.27 22.834 30.297C22.728 30.735 22.583 31.074 22.047 31.053C21.529 31.032 21.388 30.713 21.283 30.264C21.001 29.064 20.651 27.881 20.362 26.684C20.035 25.334 20.071 25.303 21.439 25.268C21.672 25.262 21.908 25.267 22.144 25.267Z" fill="#DAF1EE"/>
<path d="M22.033 34.696C21.276 34.696 20.519 34.696 19.762 34.696C19.6898 34.7052 19.6166 34.6983 19.5474 34.6758C19.4783 34.6533 19.415 34.6157 19.3621 34.5658C19.3092 34.5158 19.2681 34.4548 19.2416 34.3871C19.2151 34.3193 19.204 34.2466 19.209 34.174C19.209 33.791 19.478 33.705 19.787 33.704C21.301 33.7007 22.815 33.7007 24.329 33.704C24.648 33.704 24.914 33.818 24.891 34.192C24.8888 34.2648 24.8714 34.3362 24.8399 34.4018C24.8084 34.4673 24.7635 34.5256 24.7081 34.5727C24.6527 34.6198 24.588 34.6548 24.5182 34.6753C24.4484 34.6959 24.3751 34.7016 24.303 34.692C23.548 34.7 22.79 34.696 22.033 34.696Z" fill="#AEB3BA"/>
<path d="M22.048 32.622C21.264 32.479 20.2819 32.891 19.3749 32.393C20.281 32.1799 21.2169 32.1238 22.142 32.227C22.7862 32.1921 23.4317 32.1921 24.0759 32.227C24.2993 32.2615 24.5178 32.3222 24.7269 32.408C24.5809 32.622 24.3569 32.619 24.1349 32.619C23.4899 32.623 22.844 32.622 22.048 32.622Z" fill="#B7CBCF"/>
<path d="M26.511 21.891C26.311 21.856 26.262 21.722 26.274 21.544C26.29 21.326 26.2739 21.063 26.5509 21.017C26.8279 20.971 26.9589 21.206 26.9389 21.437C26.9322 21.5509 26.8857 21.6588 26.8074 21.7418C26.7292 21.8248 26.6242 21.8776 26.511 21.891Z" fill="#DAF1EE"/>
<path d="M23.066 13.2379C22.297 14.4519 21.193 15.491 21.072 17.043C21.0741 17.1293 21.0585 17.2151 21.0262 17.2952C20.994 17.3752 20.9457 17.4479 20.8844 17.5087C20.8231 17.5694 20.75 17.617 20.6696 17.6486C20.5892 17.6801 20.5033 17.6948 20.417 17.6919C20.028 17.65 19.95 17.22 19.928 16.862C19.9574 16.1005 20.2141 15.3653 20.665 14.7509C21.226 13.7509 22.139 12.929 22.104 11.637C22.1076 11.5478 22.1296 11.4604 22.1688 11.3803C22.208 11.3001 22.2636 11.2291 22.3318 11.1716C22.4 11.1141 22.4795 11.0715 22.5651 11.0464C22.6507 11.0213 22.7405 11.0144 22.829 11.026C23.143 11.059 23.246 11.4489 23.239 11.7209C23.2034 12.2402 23.1406 12.7572 23.051 13.27L23.066 13.2379Z" fill="#212949"/>
<path d="M23.066 13.238L23.051 13.269C23.563 13.526 23.9139 12.423 24.3949 13.054C24.5214 13.2864 24.5821 13.5489 24.5704 13.8132C24.5588 14.0775 24.4753 14.3336 24.329 14.554C23.7559 15.4291 23.2769 16.3623 22.9 17.338C22.8515 17.4782 22.7539 17.596 22.6252 17.6696C22.4964 17.7431 22.3453 17.7675 22.2 17.738C22.0625 17.683 21.9482 17.5822 21.8764 17.4527C21.8046 17.3231 21.7797 17.1728 21.806 17.027C21.9103 16.3338 22.178 15.6754 22.587 15.106C22.914 14.54 23.567 14.024 23.066 13.238Z" fill="#454B67"/>
</g>
<defs>
<clipPath id="clip0_3_20">
<rect width="44.005" height="44.249" fill="white"/>
</clipPath>
</defs>
</svg>
