<svg width="129" height="129" viewBox="0 0 129 129" fill="none" xmlns="http://www.w3.org/2000/svg">
<path d="M105 0H24C10.7452 0 0 10.7452 0 24V105C0 118.255 10.7452 129 24 129H105C118.255 129 129 118.255 129 105V24C129 10.7452 118.255 0 105 0Z" fill="#DFF6F2"/>
<path d="M81.029 53.805H76.167V43.031C76.1472 42.5285 75.9337 42.0532 75.5712 41.7046C75.2087 41.3561 74.7254 41.1614 74.2225 41.1614C73.7196 41.1614 73.2362 41.3561 72.8737 41.7046C72.5112 42.0532 72.2977 42.5285 72.278 43.031V53.805H56.721V43.031C56.7012 42.5285 56.4877 42.0532 56.1252 41.7046C55.7627 41.3561 55.2794 41.1614 54.7765 41.1614C54.2736 41.1614 53.7902 41.3561 53.4277 41.7046C53.0652 42.0532 52.8517 42.5285 52.832 43.031V53.805H47.97C47.432 53.805 46.998 54.65 46.998 55.165V59.833C46.998 65.433 56.721 71.933 56.721 80.933V83.945H60.61V87.835H68.388V83.945H72.278V80.928C72.278 71.934 82.001 65.428 82.001 59.828V55.165C82.001 54.65 81.566 53.805 81.029 53.805ZM63.437 69.739C63.4536 69.6946 63.4587 69.6467 63.4517 69.5998C63.4448 69.5529 63.4261 69.5085 63.3973 69.4708C63.3685 69.4332 63.3306 69.4034 63.2872 69.3844C63.2438 69.3653 63.1962 69.3576 63.149 69.362H59.371C59.147 69.362 59.084 69.236 59.226 69.071C59.226 69.071 67.009 59.193 67.161 59.003C67.276 58.822 67.402 58.885 67.361 59.093C67.301 59.356 65.639 66.093 65.639 66.093C65.558 66.293 65.675 66.442 65.896 66.442H69.678C69.901 66.442 69.972 66.592 69.836 66.761C69.836 66.761 62.041 76.875 61.901 77.044C61.761 77.213 61.63 77.162 61.701 76.874L63.439 69.736" fill="#212949"/>
</svg>
