<svg width="129" height="129" viewBox="0 0 129 129" fill="none" xmlns="http://www.w3.org/2000/svg">
<path d="M105 0H24C10.7452 0 0 10.7452 0 24V105C0 118.255 10.7452 129 24 129H105C118.255 129 129 118.255 129 105V24C129 10.7452 118.255 0 105 0Z" fill="#DFF6F2"/>
<path d="M56.673 82.58C56.674 83.1537 56.8441 83.7144 57.162 84.192L58.717 86.534C58.9833 86.934 59.3443 87.2619 59.7679 87.4887C60.1915 87.7155 60.6645 87.8341 61.145 87.834H66.77C67.2505 87.8341 67.7236 87.7155 68.1472 87.4887C68.5708 87.2619 68.9317 86.934 69.198 86.534L70.756 84.192C71.074 83.7145 71.2441 83.1537 71.245 82.58V79.08H56.668V82.58H56.673ZM47.917 57.208C47.911 61.0931 49.323 64.8469 51.888 67.765C53.9737 70.2257 55.5871 73.0504 56.647 76.097C56.647 76.121 56.653 76.144 56.657 76.168H71.263C71.263 76.144 71.269 76.122 71.273 76.097C72.3329 73.0504 73.9463 70.2257 76.032 67.765C77.7379 65.8134 78.9454 63.4774 79.551 60.9571C80.1567 58.4368 80.1425 55.8072 79.5096 53.2936C78.8768 50.78 77.6442 48.4572 75.9173 46.5241C74.1905 44.591 72.0208 43.1053 69.5942 42.1941C67.1675 41.2829 64.5562 40.9734 61.9838 41.2922C59.4114 41.6109 56.9546 42.5483 54.8237 44.0242C52.6929 45.5001 50.9514 47.4704 49.7486 49.7665C48.5457 52.0625 47.9172 54.6159 47.917 57.208ZM63.96 49.916C62.0267 49.9181 60.1732 50.6871 58.8061 52.0541C57.4391 53.4212 56.6701 55.2747 56.668 57.208C56.668 57.5948 56.5143 57.9658 56.2408 58.2393C55.9673 58.5128 55.5963 58.6665 55.2095 58.6665C54.8227 58.6665 54.4517 58.5128 54.1782 58.2393C53.9047 57.9658 53.751 57.5948 53.751 57.208C53.7539 54.5013 54.8304 51.9063 56.7444 49.9924C58.6583 48.0784 61.2533 47.0019 63.96 46.999C64.3468 46.999 64.7178 47.1527 64.9913 47.4262C65.2648 47.6997 65.4185 48.0707 65.4185 48.4575C65.4185 48.8443 65.2648 49.2153 64.9913 49.4888C64.7178 49.7623 64.3468 49.916 63.96 49.916Z" fill="#212949"/>
</svg>