<svg width="129" height="129" viewBox="0 0 129 129" fill="none" xmlns="http://www.w3.org/2000/svg">
<path d="M105 0H24C10.7452 0 0 10.7452 0 24V105C0 118.255 10.7452 129 24 129H105C118.255 129 129 118.255 129 105V24C129 10.7452 118.255 0 105 0Z" fill="#DFF6F2"/>
<path d="M55.563 67.747L61.722 73.902V85.25H74.032V73.902L80.187 67.747V56.015L55.644 56.053L55.563 67.747ZM65.834 42.165H69.912V48.32H65.834V42.165ZM50.947 49.705L53.822 46.781L58.14 51.166L55.265 54.09L50.947 49.705ZM77.596 51.167L81.922 46.791L84.8 49.715L80.482 54.09L77.596 51.167Z" fill="#212949"/>
</svg>
