<svg width="71" height="71" viewBox="0 0 71 71" fill="none" xmlns="http://www.w3.org/2000/svg">
<path d="M57.7907 0H13.2093C5.91401 0 0 5.91401 0 13.2093V57.7907C0 65.086 5.91401 71 13.2093 71H57.7907C65.086 71 71 65.086 71 57.7907V13.2093C71 5.91401 65.086 0 57.7907 0Z" fill="#DFF6F2"/>
<path d="M36 20.25C27.3023 20.25 20.25 27.3023 20.25 36C20.25 44.6977 27.3023 51.75 36 51.75C44.6977 51.75 51.75 44.6977 51.75 36C51.75 27.3023 44.6977 20.25 36 20.25ZM37.125 43.5938C37.125 43.7484 36.9984 43.875 36.8438 43.875H35.1562C35.0016 43.875 34.875 43.7484 34.875 43.5938V34.0312C34.875 33.8766 35.0016 33.75 35.1562 33.75H36.8438C36.9984 33.75 37.125 33.8766 37.125 34.0312V43.5938ZM36 31.5C35.5584 31.491 35.138 31.3092 34.8288 30.9937C34.5197 30.6783 34.3466 30.2542 34.3466 29.8125C34.3466 29.3708 34.5197 28.9467 34.8288 28.6313C35.138 28.3158 35.5584 28.134 36 28.125C36.4416 28.134 36.8621 28.3158 37.1712 28.6313C37.4803 28.9467 37.6534 29.3708 37.6534 29.8125C37.6534 30.2542 37.4803 30.6783 37.1712 30.9937C36.8621 31.3092 36.4416 31.491 36 31.5Z" fill="#212949"/>
</svg>
